<?xml version="1.0" encoding="UTF-8" standalone="no"?>
<svg width="27px" height="20px" viewBox="0 0 27 20" version="1.1" xmlns="http://www.w3.org/2000/svg" xmlns:xlink="http://www.w3.org/1999/xlink">
    <!-- Generator: Sketch 41 (35326) - http://www.bohemiancoding.com/sketch -->
    <title>ic_translate</title>
    <desc>Created with Sketch.</desc>
    <defs></defs>
    <g id="Page-1" stroke="none" stroke-width="1" fill="none" fill-rule="evenodd">
        <g id="Artboard" transform="translate(-105.000000, -72.000000)" fill="#000000">
            <g id="ic_translate" transform="translate(105.000000, 72.000000)">
                <g id="Combined-Shape">
                    <g id="Organisation-Viewer">
                        <g id="Desktop">
                            <path d="M5.97345131,19.4734513 L14.3258794,19.4734513 C15.2581818,19.4734513 16.0088493,18.7147606 16.0088493,17.7788689 L16.0088493,9.34060022 C16.0088493,8.40386897 15.2553586,7.64601778 14.3258794,7.64601778 L1.68296991,7.64601778 C0.750668344,7.64601778 0,8.4047085 0,9.34060022 L0,17.7788689 C0,18.7121028 0.747875531,19.4677898 1.67256647,19.4734193 L5.97345131,19.4734513 Z M7.49390822,9.91592887 L8.62651941,9.91592887 L11.3149837,17.3230085 L10.21579,17.3230085 L9.44245266,15.1043991 L6.53655994,15.1043991 L5.73324834,17.3230085 L4.70461838,17.3230085 L7.49390822,9.91592887 Z M16.8451329,11.8274335 L21.0265487,11.8274335 L25.3274335,11.8274032 C26.2521245,11.821772 27,11.066085 27,10.1328511 L27,1.69458328 C27,0.758690719 26.2493317,0 25.3170301,0 L12.6741206,0 C11.7446414,0 10.9911507,0.757851187 10.9911507,1.69458328 L10.9911507,6.80973412 L16.8451329,6.80973412 L16.8451329,8.37167231 C17.3943197,8.03003456 17.7556286,7.78909247 18.6115674,7.12561894 C18.3476264,6.88106981 17.0755374,5.46722662 16.9475347,4.70181459 L17.9715552,4.70181459 C18.4835655,5.84993222 19.2515805,6.487776 19.2515805,6.487776 C20.5316058,5.46722662 20.5316058,4.06397166 20.5316058,4.06397166 L21.5556255,4.06397166 C21.5556255,4.06397166 21.4276236,5.72236397 20.0195955,7.12561894 C20.6596077,7.76346188 21.2996208,8.27373656 22.4516433,8.78401041 L22.0676358,9.67699153 C20.7876105,9.16671684 20.0195955,8.52887391 19.2515805,7.89103012 C18.6198742,8.41566797 17.2953816,9.19921978 16.8451329,9.46082616 L16.8451329,11.8274335 Z M9.15775875,14.2874618 L8.01740194,11.0151225 L6.83229853,14.2874618 L9.15775875,14.2874618 Z M15.4115047,4.06397166 L22.5796461,4.06397166 L22.5796461,3.04342312 L19.635588,3.04342312 L19.635588,2.15044284 L18.4835655,2.15044284 L18.4835655,3.04342312 L15.4115047,3.04342312 L15.4115047,4.06397166 Z" id="Combined-Shape"></path>
                        </g>
                    </g>
                </g>
            </g>
        </g>
    </g>
</svg>